#define bullet_width 4
#define bullet_height 6
static unsigned char bullet_bits[] = {
   0x03, 0x03, 0x0c, 0x0c, 0x03, 0x03 };
