<?xml version="1.0" encoding="UTF-8" standalone="no"?>
<svg
	xmlns:dc="http://purl.org/dc/elements/1.1/"
	xmlns:cc="http://creativecommons.org/ns#"
	xmlns:rdf="http://www.w3.org/1999/02/22-rdf-syntax-ns#"
	xmlns:svg="http://www.w3.org/2000/svg"
	xmlns="http://www.w3.org/2000/svg"
	version="1.0"
	width="48"
	height="48"
	id="svg2">
	<metadata id="metadata18">
		<rdf:RDF>
			<cc:Work rdf:about="">
				<dc:format>image/svg+xml</dc:format>
				<dc:type rdf:resource="http://purl.org/dc/dcmitype/StillImage"/>
				<dc:title></dc:title>
			</cc:Work>
		</rdf:RDF>
	</metadata>
	<defs id="defs16"/>
	<g transform="matrix(0.72882557,0,0,0.72882557,-116.94807,3.3594076)" id="g4751">
		<path
			d="m 193.21875,-4.59375 a 1.0001,1.0001 0 0 0 -0.3125,0.125 L 165.25,11.46875 a 1.0001,1.0001 0 0 0 -0.375,0.375 l 28.53125,16.46875 28.5,-16.46875 a 1.0001,1.0001 0 0 0 -0.375,-0.375 l -27.625,-15.9375 a 1.0001,1.0001 0 0 0 -0.6875,-0.125 z"
			id="path4561"
			style="font-size:medium;font-style:normal;font-variant:normal;font-weight:normal;font-stretch:normal;text-indent:0;text-align:start;text-decoration:none;line-height:normal;letter-spacing:normal;word-spacing:normal;text-transform:none;direction:ltr;block-progression:tb;writing-mode:lr-tb;text-anchor:start;baseline-shift:baseline;color:#000000;fill:#829daa;fill-opacity:1;fill-rule:nonzero;stroke:none;stroke-width:2;marker:none;visibility:visible;display:inline;overflow:visible;enable-background:accumulate;font-family:Sans;-inkscape-font-specification:Sans"/>
		<path
			d="m 164.875,11.84375 c -0.095,0.148946 -0.11831,0.323451 -0.125,0.5 l 0,31.9375 c -0.003,0.352048 0.19511,0.698966 0.5,0.875 l 27.65625,15.9375 c 0.15202,0.08415 0.32626,0.158966 0.5,0.15625 l 0,-32.9375 z"
			id="path4557"
			style="font-size:medium;font-style:normal;font-variant:normal;font-weight:normal;font-stretch:normal;text-indent:0;text-align:start;text-decoration:none;line-height:normal;letter-spacing:normal;word-spacing:normal;text-transform:none;direction:ltr;block-progression:tb;writing-mode:lr-tb;text-anchor:start;baseline-shift:baseline;color:#000000;fill:#465b65;fill-opacity:1;fill-rule:nonzero;stroke:none;stroke-width:2;marker:none;visibility:visible;display:inline;overflow:visible;enable-background:accumulate;font-family:Sans;-inkscape-font-specification:Sans"/>
		<path
			d="m 221.90625,11.84375 -28.5,16.46875 0,32.9375 c 0.17655,-0.0067 0.35105,-0.06123 0.5,-0.15625 l 27.625,-15.9375 c 0.30489,-0.176034 0.50313,-0.522952 0.5,-0.875 l 0,-31.9375 c 0.003,-0.173735 -0.0409,-0.347982 -0.125,-0.5 z"
			id="path4553"
			style="font-size:medium;font-style:normal;font-variant:normal;font-weight:normal;font-stretch:normal;text-indent:0;text-align:start;text-decoration:none;line-height:normal;letter-spacing:normal;word-spacing:normal;text-transform:none;direction:ltr;block-progression:tb;writing-mode:lr-tb;text-anchor:start;baseline-shift:baseline;color:#000000;fill:#56707f;fill-opacity:1;fill-rule:nonzero;stroke:none;stroke-width:2;marker:none;visibility:visible;display:inline;overflow:visible;enable-background:accumulate;font-family:Sans;-inkscape-font-specification:Sans"/>
		<path
			d="m 192.50073,3.1117599 c -1.97203,0 -3.55962,0.8206212 -3.55962,1.839958 v 0.8624803 a 13.348548,6.8998425 0 0 0 -4.20966,1.2568854 l -1.44609,-0.4312401 c -1.70783,-0.5096684 -3.87717,-0.208959 -4.86318,0.6738128 l -0.88991,0.7959971 c -0.98601,0.8827719 -0.40425,2.0041026 1.30357,2.5137706 l 1.43914,0.429444 a 13.348548,6.8998425 0 0 0 -0.2329,1.258682 13.348548,6.8998425 0 0 0 0.2329,1.258682 l -1.43914,0.429443 c -1.70782,0.509669 -2.28958,1.630999 -1.30357,2.513771 l 0.88991,0.795997 c 0.98601,0.882772 3.15535,1.183482 4.86318,0.673813 l 1.43566,-0.428544 a 13.348548,6.8998425 0 0 0 4.22009,1.252393 v 0.864277 c 0,1.019336 1.58759,1.839958 3.55962,1.839958 h 1.7798 c 1.97203,0 3.55962,-0.820622 3.55962,-1.839958 v -0.867871 a 13.348548,6.8998425 0 0 0 4.20966,-1.251495 l 1.44609,0.43124 c 1.70782,0.509669 3.87716,0.208959 4.86318,-0.673813 l 0.8899,-0.795997 c 0.98601,-0.882772 0.40426,-2.004102 -1.30357,-2.513771 l -1.43914,-0.429443 a 13.348548,6.8998425 0 0 0 0.23291,-1.258682 13.348548,6.8998425 0 0 0 -0.23291,-1.258682 l 1.43914,-0.429444 c 1.70783,-0.509668 2.28958,-1.6309987 1.30357,-2.5137706 l -0.8899,-0.7959971 C 207.37306,6.4308845 205.20372,6.1301751 203.4959,6.6398435 l -1.43566,0.4285446 A 13.348548,6.8998425 0 0 0 197.84015,5.8150965 V 4.9517179 c 0,-1.0193368 -1.58759,-1.839958 -3.55962,-1.839958 z"
			id="path4-1"
			style="opacity:0.2"/>
		<path
			d="m 192.50073,2.6517704 c -1.97203,0 -3.55962,0.8206212 -3.55962,1.839958 v 0.8624803 a 13.348548,6.8998425 0 0 0 -4.20966,1.2568854 L 183.28536,6.179854 c -1.70783,-0.5096684 -3.87717,-0.208959 -4.86318,0.6738128 l -0.88991,0.7959971 c -0.98601,0.8827719 -0.40425,2.0041025 1.30357,2.5137711 l 1.43914,0.429443 a 13.348548,6.8998425 0 0 0 -0.2329,1.258682 13.348548,6.8998425 0 0 0 0.2329,1.258682 l -1.43914,0.429444 c -1.70782,0.509668 -2.28958,1.630999 -1.30357,2.513771 l 0.88991,0.795997 c 0.98601,0.882772 3.15535,1.183481 4.86318,0.673813 l 1.43566,-0.428545 a 13.348548,6.8998425 0 0 0 4.22009,1.252393 v 0.864277 c 0,1.019337 1.58759,1.839958 3.55962,1.839958 h 1.7798 c 1.97203,0 3.55962,-0.820621 3.55962,-1.839958 v -0.867871 a 13.348548,6.8998425 0 0 0 4.20966,-1.251495 l 1.44609,0.431241 c 1.70782,0.509668 3.87716,0.208959 4.86318,-0.673813 l 0.8899,-0.795997 c 0.98601,-0.882772 0.40426,-2.004103 -1.30357,-2.513771 l -1.43914,-0.429444 a 13.348548,6.8998425 0 0 0 0.23291,-1.258682 13.348548,6.8998425 0 0 0 -0.23291,-1.258682 l 1.43914,-0.429443 c 1.70783,-0.5096686 2.28958,-1.6309992 1.30357,-2.5137711 l -0.8899,-0.7959971 C 207.37306,5.970895 205.20372,5.6701856 203.4959,6.179854 l -1.43566,0.4285446 A 13.348548,6.8998425 0 0 0 197.84015,5.3551071 V 4.4917284 c 0,-1.0193368 -1.58759,-1.839958 -3.55962,-1.839958 z"
			id="path6-9"
			style="fill:#9bb0bc;fill-opacity:1"/>
		<path
			d="m 192.50073,2.6517704 c -1.97203,0 -3.55962,0.8206212 -3.55962,1.839958 v 0.4599895 c 0,-1.0193368 1.58759,-1.839958 3.55962,-1.839958 h 1.7798 c 1.97203,0 3.55962,0.8206212 3.55962,1.839958 V 4.4917284 c 0,-1.0193368 -1.58759,-1.839958 -3.55962,-1.839958 z m -3.55962,2.7024383 a 13.348548,6.8998425 0 0 0 -4.20966,1.2568854 L 183.28536,6.179854 c -1.70783,-0.5096684 -3.87717,-0.208959 -4.86318,0.6738128 l -0.88991,0.7959971 c -0.3997,0.3578521 -0.52934,0.7541836 -0.44321,1.1338024 0.0608,-0.2304883 0.20361,-0.4592982 0.44321,-0.6738129 l 0.88991,-0.7959971 c 0.98601,-0.8827718 3.15535,-1.1834812 4.86318,-0.6738128 l 1.44609,0.4312401 a 13.348548,6.8998425 0 0 1 4.20966,-1.2568854 z m 8.89904,8.97e-4 v 0.4599895 a 13.348548,6.8998425 0 0 1 4.22009,1.2532915 l 1.43566,-0.4285446 c 1.70782,-0.5096684 3.87716,-0.208959 4.86318,0.6738128 l 0.8899,0.7959971 c 0.23961,0.2145148 0.38243,0.4433246 0.44322,0.6738129 0.0861,-0.3796187 -0.0435,-0.7759503 -0.44322,-1.1338024 l -0.8899,-0.7959971 C 207.37306,5.9708936 205.20372,5.6701842 203.4959,6.1798526 l -1.43566,0.4285446 a 13.348548,6.8998425 0 0 0 -4.22009,-1.2532901 z m 8.78605,5.6618243 -0.11993,0.03594 a 13.348548,6.8998425 0 0 1 0.21031,1.047553 13.348548,6.8998425 0 0 0 0.0226,-0.248862 13.348548,6.8998425 0 0 0 -0.11298,-0.834629 z m -26.46593,0.0018 a 13.348548,6.8998425 0 0 0 -0.11819,0.832836 13.348548,6.8998425 0 0 0 0.0226,0.211128 13.348548,6.8998425 0 0 1 0.21031,-1.00982 z m 26.46072,2.125654 a 13.348548,6.8998425 0 0 1 -0.11472,0.42585 l 1.43914,0.429443 c 1.01553,0.303063 1.62045,0.82312 1.74679,1.379969 0.18936,-0.718019 -0.45397,-1.45414 -1.74679,-1.839958 z m -26.46594,0.0018 -1.31921,0.393507 c -1.29282,0.385818 -1.93614,1.12194 -1.74678,1.839958 0.12634,-0.556849 0.73127,-1.076906 1.74678,-1.379969 l 1.43914,-0.429436 a 13.348548,6.8998425 0 0 1 -0.11993,-0.424053 z"
			id="path8-4"
			style="opacity:0.1;fill:#ffffff"/>
		<path
			d="m 193.39063,8.6316339 c 3.93186,0 7.11923,1.6475441 7.11923,3.6799161 0,2.032371 -3.18737,3.679916 -7.11923,3.679916 -3.93186,0 -7.11923,-1.647545 -7.11923,-3.679916 0,-2.032372 3.18737,-3.6799161 7.11923,-3.6799161 z"
			id="path10-7"
			style="opacity:0.2"/>
		<path
			d="m 193.39063,8.1716444 c 3.93186,0 7.11923,1.6475444 7.11923,3.6799156 0,2.032372 -3.18737,3.679916 -7.11923,3.679916 -3.93186,0 -7.11923,-1.647544 -7.11923,-3.679916 0,-2.0323712 3.18737,-3.6799156 7.11923,-3.6799156 z"
			id="path12-8"
			style="fill:#ffffff;fill-opacity:0.70689655"/>
		<path
			d="m 199.53394,32.423626 c -0.98601,1.707825 -1.06913,3.493026 -0.18635,4.002695 l 0.74693,0.43124 a 6.8998425,13.348548 30 0 0 -1.01634,4.274115 l -1.09651,1.036733 c -1.2953,1.224183 -2.11955,3.253245 -1.84805,4.548543 l 0.2444,1.168677 c 0.2715,1.295298 1.53348,1.352148 2.82877,0.127965 l 1.09148,-1.031613 a 6.8998425,13.348548 30 0 0 0.9736,0.831043 6.8998425,13.348548 30 0 0 1.2065,0.427639 l -0.34766,1.461056 c -0.41252,1.733852 0.2677,2.798333 1.52521,2.385807 l 1.1343,-0.372681 c 1.25751,-0.412526 2.60261,-2.140878 3.01513,-3.874729 l 0.3467,-1.457593 a 6.8998425,13.348548 30 0 0 3.19465,-3.028509 l 0.74849,0.432139 c 0.88277,0.509668 2.38724,-0.454912 3.37325,-2.162737 l 0.88991,-1.541357 c 0.98601,-1.707824 1.06913,-3.493026 0.18635,-4.002694 l -0.75159,-0.433936 a 6.8998425,13.348548 30 0 0 1.021,-4.27142 l 1.09651,-1.036733 c 1.2953,-1.224183 2.11955,-3.253245 1.84805,-4.548543 l -0.2444,-1.168677 c -0.2715,-1.295298 -1.53348,-1.352147 -2.82877,-0.127964 l -1.09148,1.031612 a 6.8998425,13.348548 30 0 0 -0.9736,-0.831043 6.8998425,13.348548 30 0 0 -1.2065,-0.427639 l 0.34766,-1.461056 c 0.41252,-1.733851 -0.2677,-2.798333 -1.52521,-2.385806 l -1.1343,0.37268 c -1.25751,0.412526 -2.60261,2.140878 -3.01513,3.87473 l -0.3467,1.457593 a 6.8998425,13.348548 30 0 0 -3.19543,3.028059 l -0.74771,-0.431689 c -0.88277,-0.509669 -2.38724,0.454912 -3.37326,2.162736 z"
			id="path4-1-5"
			style="opacity:0.2"/>
		<path
			d="m 199.13558,32.193632 c -0.98601,1.707824 -1.06913,3.493025 -0.18636,4.002694 l 0.74693,0.43124 a 6.8998425,13.348548 30 0 0 -1.01633,4.274116 l -1.09651,1.036732 c -1.2953,1.224184 -2.11955,3.253245 -1.84805,4.548543 l 0.2444,1.168677 c 0.27149,1.295298 1.53347,1.352148 2.82877,0.127965 l 1.09148,-1.031613 a 6.8998425,13.348548 30 0 0 0.9736,0.831044 6.8998425,13.348548 30 0 0 1.2065,0.427639 l -0.34766,1.461055 c -0.41253,1.733852 0.2677,2.798333 1.52521,2.385807 l 1.1343,-0.37268 c 1.25751,-0.412527 2.6026,-2.140879 3.01513,-3.87473 l 0.3467,-1.457593 a 6.8998425,13.348548 30 0 0 3.19465,-3.028509 l 0.74849,0.432139 c 0.88277,0.509668 2.38724,-0.454912 3.37325,-2.162736 l 0.88991,-1.541358 c 0.98601,-1.707824 1.06912,-3.493026 0.18635,-4.002694 l -0.7516,-0.433935 a 6.8998425,13.348548 30 0 0 1.02101,-4.271421 l 1.09651,-1.036733 c 1.2953,-1.224183 2.11955,-3.253244 1.84805,-4.548542 l -0.2444,-1.168678 c -0.2715,-1.295298 -1.53348,-1.352147 -2.82878,-0.127964 l -1.09148,1.031612 a 6.8998425,13.348548 30 0 0 -0.97359,-0.831043 6.8998425,13.348548 30 0 0 -1.20651,-0.427639 l 0.34766,-1.461056 c 0.41253,-1.733851 -0.26769,-2.798332 -1.5252,-2.385806 l -1.13431,0.37268 c -1.25751,0.412526 -2.6026,2.140878 -3.01513,3.87473 l -0.3467,1.457593 a 6.8998425,13.348548 30 0 0 -3.19542,3.028059 l -0.74771,-0.431689 c -0.88277,-0.509668 -2.38725,0.454912 -3.37326,2.162736 z"
			id="path6-9-5"
			style="fill:#638391;fill-opacity:1"/>
		<path
			d="m 199.13558,32.193632 c -0.98601,1.707824 -1.06913,3.493025 -0.18636,4.002694 l 0.39837,0.229995 c -0.88278,-0.509669 -0.79966,-2.29487 0.18635,-4.002695 l 0.8899,-1.541357 c 0.98602,-1.707824 2.49049,-2.672405 3.37326,-2.162736 l -0.39836,-0.229995 c -0.88277,-0.509668 -2.38725,0.454912 -3.37326,2.162736 z m 0.56057,4.433934 a 6.8998425,13.348548 30 0 0 -1.01633,4.274116 l -1.09651,1.036732 c -1.2953,1.224184 -2.11955,3.253245 -1.84805,4.548543 l 0.2444,1.168677 c 0.11005,0.525085 0.38847,0.835515 0.76029,0.950738 -0.16922,-0.167881 -0.29596,-0.40598 -0.36193,-0.720743 l -0.2444,-1.168677 c -0.2715,-1.295298 0.55275,-3.32436 1.84805,-4.548543 l 1.09651,-1.036733 a 6.8998425,13.348548 30 0 1 1.01634,-4.274115 z m 4.4503,-7.706339 0.39836,0.229994 a 6.8998425,13.348548 30 0 1 3.19543,-3.028059 l 0.3467,-1.457593 c 0.41252,-1.733852 1.75762,-3.462204 3.01512,-3.87473 l 1.13431,-0.37268 c 0.30558,-0.100248 0.57514,-0.109529 0.80515,-0.04693 -0.28569,-0.264411 -0.69375,-0.350289 -1.20351,-0.183065 l -1.13431,0.37268 c -1.25751,0.412527 -2.6026,2.140879 -3.01513,3.87473 l -0.3467,1.457593 a 6.8998425,13.348548 30 0 0 -3.19542,3.02806 z m 9.29631,-4.778038 -0.0288,0.121833 a 6.8998425,13.348548 30 0 1 1.01236,0.341643 6.8998425,13.348548 30 0 0 -0.20422,-0.143999 6.8998425,13.348548 30 0 0 -0.7793,-0.319477 z m -13.23142,22.921068 a 6.8998425,13.348548 30 0 0 0.66217,0.518773 6.8998425,13.348548 30 0 0 0.19414,0.08599 6.8998425,13.348548 30 0 1 -0.76937,-0.687044 z m 15.07124,-21.852828 a 6.8998425,13.348548 30 0 1 0.31143,0.312273 l 1.09148,-1.031612 c 0.77022,-0.727937 1.52307,-0.991785 2.06848,-0.822774 -0.52714,-0.523002 -1.4863,-0.333923 -2.46684,0.592779 z m -13.23142,22.921069 -0.31882,1.339223 c -0.31228,1.31252 0.004,2.23772 0.72006,2.432737 -0.41907,-0.387838 -0.56699,-1.171751 -0.32169,-2.202742 l 0.34766,-1.461053 a 6.8998425,13.348548 30 0 1 -0.4272,-0.108162 z"
			id="path8-4-4"
			style="opacity:0.1;fill:#ffffff"/>
		<path
			d="m 204.75924,34.412885 c 1.96593,-3.40509 4.98643,-5.341658 6.74652,-4.325473 1.76008,1.016186 1.59321,4.600299 -0.37271,8.005389 -1.96593,3.40509 -4.98643,5.341658 -6.74652,4.325472 -1.76008,-1.016186 -1.59322,-4.600298 0.37271,-8.005388 z"
			id="path10-7-7"
			style="opacity:0.2"/>
		<path
			d="m 204.36088,34.18289 c 1.96593,-3.40509 4.98643,-5.341658 6.74651,-4.325472 1.76009,1.016185 1.59322,4.600298 -0.37271,8.005388 -1.96593,3.40509 -4.98643,5.341658 -6.74651,4.325472 -1.76009,-1.016186 -1.59322,-4.600298 0.37271,-8.005388 z"
			id="path12-8-6"
			style="fill:#ffffff;fill-opacity:0.70689655"/>
		<path
			d="m 186.37305,30.882272 c -0.98601,-1.707824 -2.49049,-2.672405 -3.37326,-2.162736 l -0.74693,0.43124 a 13.348548,6.8998425 60 0 0 -3.19333,-3.01723 l -0.34958,-1.467973 c -0.41252,-1.733852 -1.75762,-3.462204 -3.01513,-3.87473 l -1.1343,-0.37268 c -1.25751,-0.412527 -1.93773,0.651955 -1.52521,2.385806 l 0.34766,1.461056 a 13.348548,6.8998425 60 0 0 -1.2065,0.427639 13.348548,6.8998425 60 0 0 -0.9736,0.831043 l -1.09148,-1.031612 c -1.29529,-1.224184 -2.55727,-1.167334 -2.82877,0.127964 l -0.2444,1.168677 c -0.2715,1.295298 0.55275,3.32436 1.84805,4.548543 l 1.08896,1.029048 a 13.348548,6.8998425 60 0 0 1.02544,4.280902 l -0.74849,0.432139 c -0.88277,0.509668 -0.79965,2.29487 0.18636,4.002694 l 0.8899,1.541357 c 0.98602,1.707824 2.49049,2.672405 3.37326,2.162736 l 0.7516,-0.433935 a 13.348548,6.8998425 60 0 0 3.18866,3.019925 l 0.34958,1.467973 c 0.41252,1.733852 1.75762,3.462204 3.01513,3.87473 l 1.1343,0.37268 c 1.25751,0.412527 1.93774,-0.651955 1.52521,-2.385806 l -0.34766,-1.461056 a 13.348548,6.8998425 60 0 0 1.2065,-0.427639 13.348548,6.8998425 60 0 0 0.9736,-0.831043 l 1.09148,1.031612 c 1.2953,1.224184 2.55728,1.167334 2.82877,-0.127964 l 0.2444,-1.168677 c 0.2715,-1.295298 -0.55275,-3.32436 -1.84805,-4.548543 l -1.08896,-1.029048 a 13.348548,6.8998425 60 0 0 -1.02466,-4.281351 l 0.74771,-0.43169 c 0.88277,-0.509668 0.79965,-2.29487 -0.18636,-4.002694 z"
			id="path4-1-6"
			style="opacity:0.2"/>
		<path
			d="m 186.77141,30.652277 c -0.98601,-1.707824 -2.49048,-2.672405 -3.37326,-2.162736 l -0.74693,0.43124 a 13.348548,6.8998425 60 0 0 -3.19333,-3.01723 l -0.34958,-1.467973 c -0.41252,-1.733852 -1.75762,-3.462204 -3.01512,-3.87473 l -1.13431,-0.37268 c -1.25751,-0.412526 -1.93773,0.651955 -1.52521,2.385806 l 0.34767,1.461056 a 13.348548,6.8998425 60 0 0 -1.20651,0.427639 13.348548,6.8998425 60 0 0 -0.9736,0.831043 L 170.50975,24.2621 c -1.29529,-1.224183 -2.55727,-1.167334 -2.82877,0.127964 l -0.2444,1.168678 c -0.2715,1.295298 0.55275,3.324359 1.84805,4.548542 l 1.08896,1.029049 a 13.348548,6.8998425 60 0 0 1.02544,4.280901 l -0.74848,0.432139 c -0.88277,0.509668 -0.79966,2.29487 0.18635,4.002694 l 0.88991,1.541358 c 0.98601,1.707824 2.49048,2.672404 3.37325,2.162736 l 0.7516,-0.433936 a 13.348548,6.8998425 60 0 0 3.18866,3.019926 l 0.34958,1.467973 c 0.41252,1.733851 1.75762,3.462203 3.01513,3.87473 l 1.1343,0.37268 c 1.25752,0.412526 1.93774,-0.651955 1.52521,-2.385807 l -0.34766,-1.461056 a 13.348548,6.8998425 60 0 0 1.2065,-0.427639 13.348548,6.8998425 60 0 0 0.9736,-0.831043 l 1.09148,1.031613 c 1.2953,1.224183 2.55728,1.167333 2.82878,-0.127965 l 0.2444,-1.168677 c 0.27149,-1.295298 -0.55276,-3.32436 -1.84805,-4.548543 l -1.08896,-1.029048 a 13.348548,6.8998425 60 0 0 -1.02467,-4.281351 l 0.74771,-0.431689 c 0.88277,-0.509669 0.79966,-2.29487 -0.18636,-4.002694 z"
			id="path6-9-9"
			style="fill:#546e7a"/>
		<path
			d="m 186.77141,30.652277 c -0.98601,-1.707824 -2.49048,-2.672405 -3.37326,-2.162736 l -0.39836,0.229995 c 0.88277,-0.509669 2.38725,0.454912 3.37326,2.162736 l 0.8899,1.541357 c 0.98601,1.707824 1.06913,3.493026 0.18636,4.002694 l 0.39836,-0.229994 c 0.88277,-0.509669 0.79966,-2.29487 -0.18636,-4.002694 z m -4.12019,-1.731496 a 13.348548,6.8998425 60 0 0 -3.19333,-3.01723 l -0.34958,-1.467973 c -0.41252,-1.733852 -1.75762,-3.462204 -3.01512,-3.87473 l -1.13431,-0.37268 c -0.50976,-0.167232 -0.91781,-0.08133 -1.20351,0.183064 0.23,-0.06261 0.49957,-0.05332 0.80515,0.04693 l 1.1343,0.37268 c 1.25751,0.412526 2.60261,2.140878 3.01513,3.87473 l 0.34958,1.467973 a 13.348548,6.8998425 60 0 1 3.19333,3.01723 z m 4.44874,7.707236 -0.39836,0.229995 a 13.348548,6.8998425 60 0 1 1.02466,4.281351 l 1.08897,1.029048 c 1.29529,1.224184 2.11954,3.253245 1.84805,4.548543 l -0.24441,1.168677 c -0.066,0.314763 -0.19271,0.552854 -0.36193,0.720743 0.37183,-0.115207 0.65024,-0.425661 0.7603,-0.950737 l 0.2444,-1.168678 c 0.27149,-1.295298 -0.55275,-3.324359 -1.84805,-4.548542 l -1.08896,-1.029049 a 13.348548,6.8998425 60 0 0 -1.02467,-4.28135 z m -0.51025,10.439862 -0.0911,-0.08589 a 13.348548,6.8998425 60 0 1 -0.80205,0.705911 13.348548,6.8998425 60 0 0 0.22681,-0.104864 13.348548,6.8998425 60 0 0 0.66633,-0.515152 z M 173.35518,24.148605 a 13.348548,6.8998425 60 0 0 -0.78035,0.314064 13.348548,6.8998425 60 0 0 -0.17154,0.125139 13.348548,6.8998425 60 0 1 0.97969,-0.322776 z m 11.3895,23.978483 a 13.348548,6.8998425 60 0 1 -0.42616,0.113576 l 0.34766,1.461056 c 0.24531,1.030999 0.0974,1.814904 -0.32169,2.202742 0.7165,-0.195017 1.03234,-1.120217 0.72006,-2.432737 z m -13.23453,-22.919275 -1.00039,-0.945717 c -0.98054,-0.926702 -1.9397,-1.11578 -2.46684,-0.592778 0.54541,-0.169012 1.29826,0.09484 2.06848,0.822773 l 1.09147,1.031616 a 13.348548,6.8998425 60 0 1 0.30728,-0.315891 z"
			id="path8-4-3"
			style="opacity:0.1;fill:#ffffff"/>
		<path
			d="m 182.03764,34.412888 c 1.96594,3.40509 2.13281,6.989202 0.37272,8.005388 -1.76009,1.016186 -4.78059,-0.920382 -6.74652,-4.325473 -1.96593,-3.40509 -2.13279,-6.989202 -0.37271,-8.005388 1.76009,-1.016186 4.78058,0.920382 6.74651,4.325473 z"
			id="path10-7-74"
			style="opacity:0.2"/>
		<path
			d="m 182.43601,34.182893 c 1.96593,3.40509 2.1328,6.989202 0.37271,8.005388 -1.76009,1.016186 -4.78058,-0.920382 -6.74651,-4.325472 -1.96593,-3.40509 -2.1328,-6.989203 -0.37272,-8.005389 1.76009,-1.016185 4.78059,0.920383 6.74652,4.325473 z"
			id="path12-8-5"
			style="fill:#ffffff;fill-opacity:0.70689655"/>
	</g>
</svg>
