#define iconify_width 6
#define iconify_height 4
static unsigned char iconify_bits[] = {
   0x33, 0x33, 0x0c, 0x0c };
