#define max_width 6
#define max_height 4
static unsigned char max_bits[] = {
   0x0c, 0x0c, 0x33, 0x33 };
