#define shade_width 6
#define shade_height 2
static unsigned char shade_bits[] = {
   0x33, 0x33 };
